<svg width="1920" height="1080" xmlns="http://www.w3.org/2000/svg">
  <defs>
    <linearGradient id="tech1" x1="0%" y1="0%" x2="100%" y2="100%">
      <stop offset="0%" stop-color="#0a0a1a"/>
      <stop offset="100%" stop-color="#1a0a2e"/>
    </linearGradient>
    <linearGradient id="tech2" x1="0%" y1="0%" x2="100%" y2="0%">
      <stop offset="0%" stop-color="#00ffff"/>
      <stop offset="100%" stop-color="#ff00ff"/>
    </linearGradient>
  </defs>
  <rect width="1920" height="1080" fill="url(#tech1)"/>
  <g stroke="#00ffff" stroke-width="1" opacity="0.1">
    <line x1="0" y1="200" x2="1920" y2="200"/>
    <line x1="0" y1="400" x2="1920" y2="400"/>
    <line x1="0" y1="600" x2="1920" y2="600"/>
    <line x1="0" y1="800" x2="1920" y2="800"/>
    <line x1="400" y1="0" x2="400" y2="1080"/>
    <line x1="800" y1="0" x2="800" y2="1080"/>
    <line x1="1200" y1="0" x2="1200" y2="1080"/>
    <line x1="1600" y1="0" x2="1600" y2="1080"/>
  </g>
  <circle cx="960" cy="540" r="300" fill="none" stroke="url(#tech2)" stroke-width="2" opacity="0.3"/>
  <circle cx="960" cy="540" r="200" fill="none" stroke="url(#tech2)" stroke-width="2" opacity="0.5"/>
  <circle cx="960" cy="540" r="100" fill="none" stroke="url(#tech2)" stroke-width="2" opacity="0.7"/>
  <polygon points="300,300 350,275 400,300 400,350 350,375 300,350" fill="none" stroke="#00ffff" stroke-width="1" opacity="0.4"/>
  <polygon points="1500,700 1550,675 1600,700 1600,750 1550,775 1500,750" fill="none" stroke="#ff00ff" stroke-width="1" opacity="0.4"/>
  <polygon points="600,800 650,775 700,800 700,850 650,875 600,850" fill="none" stroke="#00ffff" stroke-width="1" opacity="0.3"/>
  <text x="960" y="560" font-family="Arial Black" font-size="200" fill="url(#tech2)" text-anchor="middle" opacity="0.2">W</text>
  <circle cx="200" cy="400" r="3" fill="#00ffff" opacity="0.6"/>
  <circle cx="500" cy="600" r="2" fill="#ff00ff" opacity="0.5"/>
  <circle cx="1400" cy="300" r="3" fill="#00ffff" opacity="0.6"/>
  <circle cx="1700" cy="800" r="2" fill="#ff00ff" opacity="0.5"/>
  <circle cx="800" cy="200" r="2" fill="#00ffff" opacity="0.4"/>
  <circle cx="1200" cy="900" r="3" fill="#ff00ff" opacity="0.6"/>
</svg>
